# xmcd CD database file
#
# Track frame offsets:
#	151
#	32652
#	61635
#	89147
#	114536
#	147541
#	173100
#	200475
#	226457
#	250393
#	277949
#	295200
#
# Disc length: 4238 seconds
#
# Revision: 0
# Processed by: cddbd v1.5.1PL2 Copyright (c) Steve Scherf et al.
# Submitted via: CDex 1.51
#
DISCID=b2108c0c
DTITLE=Joe Marillo - Miles Grew Up
DYEAR=1997
DGENRE=Jazz
TTITLE0=Miles Grew Up
TTITLE1=Violets For Your Furs
TTITLE2=The Flea
TTITLE3=Lush Life
TTITLE4=For Walter
TTITLE5=Skylark
TTITLE6=Teresa
TTITLE7=O Beautiful Glenwood Springs
TTITLE8=Quiet Now
TTITLE9=My One and Only Love
TTITLE10=It Never Entered My Mind
TTITLE11=When I Fall in Love
EXTD=YEAR: 1997
EXTT0=
EXTT1=
EXTT2=
EXTT3=
EXTT4=
EXTT5=
EXTT6=
EXTT7=
EXTT8=
EXTT9=
EXTT10=
EXTT11=
PLAYORDER=
